# xmcd
#
# Track frame offsets:
#	150
#	15082
#	35859
#	50129
#	69403
#	86014
#	98152
#	115092
#	132173
#	152360
#	164778
#	180435
#	199801
#	214176
#	227242
#
# Disc length: 3378 seconds
#
# Revision: 3
# Processed by: cddbd v1.5.2PL0 Copyright (c) Steve Scherf et al.
# Submitted via: audiograbber 1.83.01
#
DISCID=c90d300f
DTITLE=Various Southern Gospel Artists - Shout! Victory [CD1 of 2)
DYEAR=2004
DGENRE=Southern Gospel
TTITLE0=Gold City - That Little Baby
TTITLE1=Talley Trio - Jesus Saves
TTITLE2=McRaes - If It Had Not Been The Lord
TTITLE3=Mike Bowling - He Gave Me Water
TTITLE4=Three Bridges - I'm A Soldier
TTITLE5=The Carolina Boys - I'm Ready To Go
TTITLE6=The Crabb Family - Jesus Will Do What You Can't
TTITLE7=Crossway - It Looks Like Love To Me
TTITLE8=The Isaacs - I Surrender All
TTITLE9=Dottie Rambo - We've Weathered Storms Before
TTITLE10=Greater Vision - He Is To Me
TTITLE11=The Kingdom Heirs - He Had To Rise
TTITLE12=Karen Peck and New River - Get About God's Business
TTITLE13=Gaither Vocal Band - Low Down The Chariot
TTITLE14=The Hoppers - Jerusalem
EXTD=
EXTT0=
EXTT1=
EXTT2=
EXTT3=
EXTT4=
EXTT5=
EXTT6=
EXTT7=
EXTT8=
EXTT9=
EXTT10=
EXTT11=
EXTT12=
EXTT13=
EXTT14=
PLAYORDER=
